<svg width="164" height="38" viewBox="0 0 164 38" fill="none" xmlns="http://www.w3.org/2000/svg">
<g filter="url(#filter0_dd_13001_399)">
<rect x="3.1" y="2.1" width="31.8" height="31.8" rx="7.9" fill="white"/>
<rect x="3.1" y="2.1" width="31.8" height="31.8" rx="7.9" fill="url(#paint0_linear_13001_399)"/>
<rect x="3.1" y="2.1" width="31.8" height="31.8" rx="7.9" stroke="#D0D5DD" stroke-width="0.2"/>
<path d="M18.3546 13.1828C22.7105 11.4504 27.4742 12.8185 29.6373 14.9133C30.106 15.3671 30.5041 15.8275 30.845 16.2852C31.0394 15.2107 31.0552 14.1405 30.8681 13.1055C30.1847 9.32649 26.6195 7.18561 23.4233 8.29149C20.2415 9.3924 19.0005 11.5321 19.0005 11.5321C19.0005 11.5321 17.7595 9.3924 14.5777 8.29149C11.3812 7.18561 7.81603 9.32672 7.1328 13.1055C6.62842 15.8944 7.58356 18.9392 9.61033 21.6298C10.0372 21.7732 10.4847 21.8809 10.9586 21.9431C13.7978 22.3163 14.8184 21.557 16.0178 21.0486C16.8142 20.7113 17.4134 21.0942 17.3843 21.3626C17.3392 21.7786 15.7693 22.4895 16.106 22.6388C17.4351 23.2285 19.0718 23.2334 20.3053 22.18C21.838 20.8712 22.4114 21.7659 22.4114 21.7659C22.4114 21.7659 21.6502 23.7076 19.3581 24.6717C17.4457 25.4761 15.4419 25.6743 13.6107 25.4683C15.19 26.5846 17.0035 27.5204 19.0005 28.1883C24.7099 26.2784 28.9276 22.1871 30.4145 17.9096C29.4072 16.9157 28.1716 16.2996 26.6988 16.0763C23.8674 15.6471 22.8322 16.3863 21.6228 16.8708C20.8198 17.1926 20.2285 16.7978 20.263 16.5299C20.3161 16.1148 21.8999 15.4351 21.5661 15.279C20.249 14.6633 18.6125 14.626 17.3585 15.6549C15.8003 16.9332 15.2446 16.0274 15.2446 16.0274C15.2446 16.0274 16.0438 14.1015 18.3546 13.1828ZM17.2709 18.5052H18.3709V17.4052H19.6296V18.5052H20.7296V19.7639H19.6296V20.8639H18.3709V19.7639H17.2709V18.5052Z" fill="url(#paint1_linear_13001_399)"/>
<path d="M17.2709 18.5052H18.3709V17.4052H19.6296V18.5052H20.7295V19.7639H19.6378C21.2597 20.5834 24.2383 21.8027 27.8177 22.3451C28.9956 20.9517 29.8813 19.4428 30.4143 17.9096C29.4069 16.9157 28.1713 16.2996 26.6986 16.0763C23.8672 15.647 22.8319 16.3863 21.6226 16.8708C20.8196 17.1926 20.2282 16.7978 20.2627 16.5299C20.3159 16.1148 21.8997 15.4351 21.5659 15.279C20.2488 14.6633 18.6123 14.626 17.3583 15.6548C15.8 16.9332 15.2443 16.0274 15.2443 16.0274C15.2443 16.0274 16.0438 14.1013 18.3543 13.1823C22.7102 11.4499 27.4739 12.818 29.637 14.9128C30.1057 15.3666 30.5038 15.8271 30.8447 16.2847C31.0392 15.2102 31.055 14.14 30.8679 13.105C30.1844 9.326 26.6192 7.18512 23.423 8.291C20.2412 9.39191 19.0002 11.5316 19.0002 11.5316C19.0002 11.5316 17.7592 9.39191 14.5774 8.291C12.7519 7.65927 10.8067 8.0883 9.34619 9.27521C10.0323 10.7442 10.836 12.1168 13.1254 14.8773C14.9868 17.1222 17.2709 18.5052 17.2709 18.5052Z" fill="url(#paint2_linear_13001_399)"/>
<path opacity="0.31" d="M27.277 9.64954C24.2712 8.13944 21.169 10.4892 20.1851 11.7299C21.882 11.3725 23.3668 11.1892 25.2457 11.5839C28.0252 12.1679 29.0654 13.1715 30.3064 14.6542C30.0871 11.9069 28.3519 10.1896 27.277 9.64954Z" fill="url(#paint3_linear_13001_399)"/>
</g>
<path d="M55.128 28.288C53.848 28.288 52.664 28.056 51.576 27.592C50.504 27.128 49.56 26.48 48.744 25.648C47.944 24.816 47.32 23.84 46.872 22.72C46.424 21.6 46.2 20.376 46.2 19.048C46.2 17.72 46.416 16.496 46.848 15.376C47.296 14.24 47.92 13.264 48.72 12.448C49.536 11.616 50.488 10.976 51.576 10.528C52.664 10.064 53.848 9.832 55.128 9.832C56.408 9.832 57.552 10.048 58.56 10.48C59.584 10.912 60.448 11.488 61.152 12.208C61.856 12.912 62.36 13.688 62.664 14.536L59.736 15.904C59.4 15.008 58.832 14.272 58.032 13.696C57.232 13.104 56.264 12.808 55.128 12.808C54.008 12.808 53.016 13.072 52.152 13.6C51.304 14.128 50.64 14.856 50.16 15.784C49.696 16.712 49.464 17.8 49.464 19.048C49.464 20.296 49.696 21.392 50.16 22.336C50.64 23.264 51.304 23.992 52.152 24.52C53.016 25.048 54.008 25.312 55.128 25.312C56.264 25.312 57.232 25.024 58.032 24.448C58.832 23.856 59.4 23.112 59.736 22.216L62.664 23.584C62.36 24.432 61.856 25.216 61.152 25.936C60.448 26.64 59.584 27.208 58.56 27.64C57.552 28.072 56.408 28.288 55.128 28.288ZM65.0499 28V9.832H68.1939V17.512L67.7619 17.056C68.0659 16.272 68.5619 15.68 69.2499 15.28C69.9539 14.864 70.7699 14.656 71.6979 14.656C72.6579 14.656 73.5059 14.864 74.2419 15.28C74.9939 15.696 75.5779 16.28 75.9939 17.032C76.4099 17.768 76.6179 18.624 76.6179 19.6V28H73.4739V20.344C73.4739 19.768 73.3619 19.272 73.1379 18.856C72.9139 18.44 72.6019 18.12 72.2019 17.896C71.8179 17.656 71.3619 17.536 70.8339 17.536C70.3219 17.536 69.8659 17.656 69.4659 17.896C69.0659 18.12 68.7539 18.44 68.5299 18.856C68.3059 19.272 68.1939 19.768 68.1939 20.344V28H65.0499ZM79.2765 28V14.944H82.4205V28H79.2765ZM79.2765 13.48V10.12H82.4205V13.48H79.2765ZM85.3234 28V9.832H88.4674V21.736L87.2674 21.376L93.4114 14.944H97.3234L92.4994 20.2L97.4194 28H93.8194L89.5474 21.232L91.4194 20.848L87.4834 25.072L88.4674 23.152V28H85.3234ZM99.1749 28V14.944H102.319V28H99.1749ZM99.1749 13.48V10.12H102.319V13.48H99.1749ZM111.174 28.144C109.702 28.144 108.558 27.744 107.742 26.944C106.942 26.128 106.542 24.984 106.542 23.512V17.752H104.286V14.944H104.526C105.166 14.944 105.662 14.776 106.014 14.44C106.366 14.104 106.542 13.616 106.542 12.976V11.968H109.686V14.944H112.686V17.752H109.686V23.344C109.686 23.776 109.758 24.144 109.902 24.448C110.062 24.752 110.302 24.984 110.622 25.144C110.958 25.304 111.382 25.384 111.894 25.384C112.006 25.384 112.134 25.376 112.278 25.36C112.438 25.344 112.59 25.328 112.734 25.312V28C112.51 28.032 112.254 28.064 111.966 28.096C111.678 28.128 111.414 28.144 111.174 28.144ZM120.104 28.288C118.712 28.288 117.496 27.96 116.456 27.304C115.432 26.632 114.728 25.728 114.344 24.592L116.696 23.464C117.032 24.2 117.496 24.776 118.088 25.192C118.696 25.608 119.368 25.816 120.104 25.816C120.68 25.816 121.136 25.688 121.472 25.432C121.808 25.176 121.976 24.84 121.976 24.424C121.976 24.168 121.904 23.96 121.76 23.8C121.632 23.624 121.448 23.48 121.208 23.368C120.984 23.24 120.736 23.136 120.464 23.056L118.328 22.456C117.224 22.136 116.384 21.648 115.808 20.992C115.248 20.336 114.968 19.56 114.968 18.664C114.968 17.864 115.168 17.168 115.568 16.576C115.984 15.968 116.552 15.496 117.272 15.16C118.008 14.824 118.848 14.656 119.792 14.656C121.024 14.656 122.112 14.952 123.056 15.544C124 16.136 124.672 16.968 125.072 18.04L122.672 19.168C122.448 18.576 122.072 18.104 121.544 17.752C121.016 17.4 120.424 17.224 119.768 17.224C119.24 17.224 118.824 17.344 118.52 17.584C118.216 17.824 118.064 18.136 118.064 18.52C118.064 18.76 118.128 18.968 118.256 19.144C118.384 19.32 118.56 19.464 118.784 19.576C119.024 19.688 119.296 19.792 119.6 19.888L121.688 20.512C122.76 20.832 123.584 21.312 124.16 21.952C124.752 22.592 125.048 23.376 125.048 24.304C125.048 25.088 124.84 25.784 124.424 26.392C124.008 26.984 123.432 27.448 122.696 27.784C121.96 28.12 121.096 28.288 120.104 28.288ZM127.464 28V9.832H130.608V17.512L130.176 17.056C130.48 16.272 130.976 15.68 131.664 15.28C132.368 14.864 133.184 14.656 134.112 14.656C135.072 14.656 135.92 14.864 136.656 15.28C137.408 15.696 137.992 16.28 138.408 17.032C138.824 17.768 139.032 18.624 139.032 19.6V28H135.888V20.344C135.888 19.768 135.776 19.272 135.552 18.856C135.328 18.44 135.016 18.12 134.616 17.896C134.232 17.656 133.776 17.536 133.248 17.536C132.736 17.536 132.28 17.656 131.88 17.896C131.48 18.12 131.168 18.44 130.944 18.856C130.72 19.272 130.608 19.768 130.608 20.344V28H127.464ZM145.651 28.288C144.739 28.288 143.947 28.136 143.275 27.832C142.603 27.528 142.083 27.096 141.715 26.536C141.347 25.96 141.163 25.296 141.163 24.544C141.163 23.824 141.323 23.184 141.643 22.624C141.963 22.048 142.459 21.568 143.131 21.184C143.803 20.8 144.651 20.528 145.675 20.368L149.947 19.672V22.072L146.275 22.696C145.651 22.808 145.187 23.008 144.883 23.296C144.579 23.584 144.427 23.96 144.427 24.424C144.427 24.872 144.595 25.232 144.931 25.504C145.283 25.76 145.715 25.888 146.227 25.888C146.883 25.888 147.459 25.752 147.955 25.48C148.467 25.192 148.859 24.8 149.131 24.304C149.419 23.808 149.563 23.264 149.563 22.672V19.312C149.563 18.752 149.339 18.288 148.891 17.92C148.459 17.536 147.883 17.344 147.163 17.344C146.491 17.344 145.891 17.528 145.363 17.896C144.851 18.248 144.475 18.72 144.235 19.312L141.667 18.064C141.923 17.376 142.323 16.784 142.867 16.288C143.427 15.776 144.083 15.376 144.835 15.088C145.587 14.8 146.403 14.656 147.283 14.656C148.355 14.656 149.299 14.856 150.115 15.256C150.931 15.64 151.563 16.184 152.011 16.888C152.475 17.576 152.707 18.384 152.707 19.312V28H149.731V25.768L150.403 25.72C150.067 26.28 149.667 26.752 149.203 27.136C148.739 27.504 148.211 27.792 147.619 28C147.027 28.192 146.371 28.288 145.651 28.288Z" fill="white"/>
<defs>
<filter id="filter0_dd_13001_399" x="0" y="0" width="38" height="38" filterUnits="userSpaceOnUse" color-interpolation-filters="sRGB">
<feFlood flood-opacity="0" result="BackgroundImageFix"/>
<feColorMatrix in="SourceAlpha" type="matrix" values="0 0 0 0 0 0 0 0 0 0 0 0 0 0 0 0 0 0 127 0" result="hardAlpha"/>
<feOffset dy="1"/>
<feGaussianBlur stdDeviation="1"/>
<feColorMatrix type="matrix" values="0 0 0 0 0.0627451 0 0 0 0 0.0941176 0 0 0 0 0.156863 0 0 0 0.06 0"/>
<feBlend mode="normal" in2="BackgroundImageFix" result="effect1_dropShadow_13001_399"/>
<feColorMatrix in="SourceAlpha" type="matrix" values="0 0 0 0 0 0 0 0 0 0 0 0 0 0 0 0 0 0 127 0" result="hardAlpha"/>
<feOffset dy="1"/>
<feGaussianBlur stdDeviation="1.5"/>
<feColorMatrix type="matrix" values="0 0 0 0 0.0627451 0 0 0 0 0.0941176 0 0 0 0 0.156863 0 0 0 0.1 0"/>
<feBlend mode="normal" in2="effect1_dropShadow_13001_399" result="effect2_dropShadow_13001_399"/>
<feBlend mode="normal" in="SourceGraphic" in2="effect2_dropShadow_13001_399" result="shape"/>
</filter>
<linearGradient id="paint0_linear_13001_399" x1="19" y1="2" x2="19" y2="34" gradientUnits="userSpaceOnUse">
<stop stop-color="white"/>
<stop offset="1" stop-color="#D0D5DD"/>
</linearGradient>
<linearGradient id="paint1_linear_13001_399" x1="10.1989" y1="24.2137" x2="27.8347" y2="6.57791" gradientUnits="userSpaceOnUse">
<stop stop-color="#0076C1"/>
<stop offset="0.0737" stop-color="#0B82C6"/>
<stop offset="0.2766" stop-color="#269ED3"/>
<stop offset="0.4546" stop-color="#36AFDA"/>
<stop offset="0.587" stop-color="#3CB5DD"/>
</linearGradient>
<linearGradient id="paint2_linear_13001_399" x1="10.1388" y1="24.2537" x2="27.8274" y2="6.56509" gradientUnits="userSpaceOnUse">
<stop stop-color="#00A482"/>
<stop offset="1" stop-color="#79DD83"/>
</linearGradient>
<linearGradient id="paint3_linear_13001_399" x1="24.8608" y1="13.5073" x2="28.5288" y2="10.1132" gradientUnits="userSpaceOnUse">
<stop stop-color="#00A482"/>
<stop offset="1" stop-color="#79DD83"/>
</linearGradient>
</defs>
</svg>
